<?xml version="1.0" encoding="UTF-8"?><svg id="Layer_1" xmlns="http://www.w3.org/2000/svg" viewBox="0 0 207.32 207.32"><defs><style>.cls-1{fill:none;opacity:.25;stroke:#0078d4;stroke-linecap:round;stroke-miterlimit:10;stroke-width:1.07px;}.cls-2{fill:#2a446f;}.cls-2,.cls-3,.cls-4,.cls-5,.cls-6,.cls-7,.cls-8,.cls-9,.cls-10{stroke-width:0px;}.cls-3{fill:#7fba00;}.cls-4{fill:#737373;}.cls-5{fill:#8dc8e8;}.cls-6{fill:#00a4ef;}.cls-7{fill:#f25022;}.cls-8{fill:#ffb900;}.cls-9{fill:#f4f3f5;}.cls-10{fill:#0078d4;}</style></defs><circle class="cls-10" cx="103.52" cy="103.66" r="100"/><path class="cls-5" d="M103.52,19.73c46.28,0,83.93,37.65,83.93,83.93s-37.65,83.93-83.93,83.93S19.59,149.94,19.59,103.66,57.24,19.73,103.52,19.73M103.52,16.84c-47.95,0-86.82,38.87-86.82,86.82s38.87,86.82,86.82,86.82,86.82-38.87,86.82-86.82S151.47,16.84,103.52,16.84h0Z"/><circle class="cls-9" cx="103.52" cy="103.66" r="77.52"/><line class="cls-1" x1="44.77" y1="145.34" x2="162.27" y2="145.34"/><line class="cls-1" x1="162.27" y1="97.19" x2="44.77" y2="97.19"/><path class="cls-2" d="M51.64,85.84c-.64.31-1.48.47-2.51.47-1.39,0-2.47-.42-3.25-1.26-.73-.78-1.09-1.81-1.09-3.09,0-1.41.43-2.55,1.3-3.42.87-.87,1.99-1.3,3.37-1.3.85,0,1.58.11,2.17.32v1.9c-.59-.35-1.26-.53-2.01-.53-.8,0-1.44.24-1.95.73-.54.52-.81,1.24-.81,2.16,0,.85.24,1.53.72,2.03.48.5,1.12.76,1.93.76s1.48-.19,2.12-.56v1.81Z"/><path class="cls-2" d="M58.56,86.15h-5.27v-8.78h5.06v1.61h-3.09v1.95h2.87v1.6h-2.87v2.01h3.29v1.6Z"/><path class="cls-2" d="M66.84,86.15h-2.27l-.89-2.26c-.29-.73-.69-1.1-1.18-1.1h-.43v3.36h-1.98v-8.78h3.14c2.13,0,3.2.8,3.2,2.39,0,.62-.18,1.15-.54,1.57-.35.4-.83.69-1.44.85v.02c.51.16.93.61,1.26,1.35l1.15,2.6ZM64.34,80c0-.77-.46-1.15-1.38-1.15h-.89v2.44h.86c.44,0,.79-.13,1.05-.39.24-.25.37-.55.37-.91Z"/><path class="cls-2" d="M74.37,78.98h-2.5v7.17h-1.98v-7.17h-2.49v-1.61h6.98v1.61Z"/><path class="cls-2" d="M77.65,86.15h-1.98v-8.78h1.98v8.78Z"/><path class="cls-2" d="M84.85,78.98h-3.1v2.16h2.85v1.6h-2.85v3.41h-1.98v-8.78h5.08v1.61Z"/><path class="cls-2" d="M88.4,86.15h-1.98v-8.78h1.98v8.78Z"/><path class="cls-2" d="M95.79,86.15h-5.27v-8.78h5.06v1.61h-3.09v1.95h2.87v1.6h-2.87v2.01h3.29v1.6Z"/><path class="cls-2" d="M105.11,81.65c0,1.36-.43,2.45-1.28,3.27-.85.82-1.98,1.23-3.4,1.23h-3.11v-8.78h3.11c3.12,0,4.68,1.43,4.68,4.28ZM103.03,81.67c0-.82-.23-1.47-.7-1.95-.49-.5-1.17-.75-2.06-.75h-.97v5.57h.98c.87,0,1.54-.26,2.03-.79.48-.51.72-1.2.72-2.08Z"/><path class="cls-2" d="M116.44,78.98h-2.5v7.17h-1.98v-7.17h-2.49v-1.61h6.98v1.61Z"/><path class="cls-2" d="M124.49,86.15h-2.27l-.89-2.26c-.29-.73-.69-1.1-1.18-1.1h-.43v3.36h-1.98v-8.78h3.14c2.13,0,3.2.8,3.2,2.39,0,.62-.18,1.15-.54,1.57-.35.4-.83.69-1.44.85v.02c.51.16.93.61,1.26,1.35l1.14,2.6ZM121.99,80c0-.77-.46-1.15-1.38-1.15h-.89v2.44h.86c.44,0,.79-.13,1.05-.39.25-.25.37-.55.37-.91Z"/><path class="cls-2" d="M133.57,86.15h-2.16l-.62-1.95h-3.12l-.62,1.95h-2.14l3.2-8.78h2.34l3.12,8.78ZM130.34,82.68l-.94-2.95c-.07-.23-.12-.5-.15-.79h-.05c-.02.27-.08.52-.15.77l-.96,2.98h2.25Z"/><path class="cls-2" d="M136.77,86.15h-1.98v-8.78h1.98v8.78Z"/><path class="cls-2" d="M146.79,86.15h-2l-3.62-5.52c-.2-.31-.35-.55-.44-.73h-.02c.03.32.05.8.05,1.42v4.83h-1.87v-8.78h2.13l3.48,5.35c.12.18.27.41.44.72h.02c-.03-.21-.05-.61-.05-1.21v-4.86h1.87v8.78Z"/><path class="cls-2" d="M154.19,86.15h-5.27v-8.78h5.06v1.61h-3.09v1.95h2.87v1.6h-2.87v2.01h3.29v1.6Z"/><path class="cls-2" d="M162.47,86.15h-2.27l-.89-2.26c-.29-.73-.69-1.1-1.18-1.1h-.43v3.36h-1.98v-8.78h3.14c2.13,0,3.2.8,3.2,2.39,0,.62-.18,1.15-.54,1.57-.35.4-.83.69-1.44.85v.02c.51.16.93.61,1.26,1.35l1.14,2.6ZM159.97,80c0-.77-.46-1.15-1.38-1.15h-.89v2.44h.86c.44,0,.79-.13,1.05-.39.25-.25.37-.55.37-.91Z"/><path class="cls-2" d="M94.19,139.95h-8.28v-22.27c0-2.34.1-4.99.31-7.97h-.21c-.43,2.3-.82,3.94-1.17,4.93l-8.72,25.3h-6.85l-8.88-25.04c-.24-.67-.63-2.4-1.17-5.19h-.23c.22,3.48.34,6.7.34,9.65v20.58h-7.55v-37.21h12.27l7.6,22.06c.6,1.78,1.05,3.56,1.32,5.32h.16c.45-2.01.94-3.8,1.48-5.37l7.6-22.01h11.96v37.21Z"/><path class="cls-2" d="M126.14,138.63c-2.72,1.32-6.26,1.97-10.64,1.97-5.88,0-10.47-1.78-13.75-5.35-3.08-3.32-4.62-7.69-4.62-13.1,0-5.99,1.84-10.82,5.53-14.51,3.69-3.69,8.45-5.53,14.3-5.53,3.62,0,6.68.46,9.19,1.38v8.07c-2.51-1.49-5.35-2.23-8.51-2.23-3.38,0-6.12,1.03-8.25,3.09-2.28,2.21-3.42,5.26-3.42,9.13,0,3.6,1.01,6.47,3.04,8.6s4.75,3.2,8.17,3.2,6.26-.79,8.98-2.39v7.66Z"/><path class="cls-2" d="M158.76,109.56h-10.61v30.39h-8.41v-30.39h-10.56v-6.83h29.58v6.83Z"/><path class="cls-4" d="M97.45,49.06v9.21h-1.6v-7.22h-.03l-2.86,7.22h-1.06l-2.93-7.22h-.02v7.22h-1.48v-9.21h2.29l2.65,6.83h.04l2.79-6.83h2.2ZM98.79,49.76c0-.26.09-.47.28-.65s.41-.26.66-.26c.27,0,.5.09.68.27.18.18.27.39.27.64s-.09.46-.28.64c-.18.17-.41.26-.67.26s-.49-.09-.67-.26c-.18-.17-.27-.38-.27-.63ZM100.5,51.67v6.6h-1.55v-6.6h1.55ZM105.22,57.14c.23,0,.49-.05.76-.16.28-.11.54-.25.77-.42v1.45c-.25.14-.53.25-.84.32-.31.07-.66.11-1.04.11-.97,0-1.76-.31-2.37-.92-.61-.61-.91-1.4-.91-2.35,0-1.06.31-1.94.93-2.62.62-.69,1.5-1.03,2.64-1.03.29,0,.59.04.88.11.3.07.53.16.71.26v1.49c-.24-.18-.48-.31-.74-.41-.25-.1-.51-.14-.77-.14-.61,0-1.11.2-1.48.6-.38.4-.57.94-.57,1.61s.18,1.19.54,1.56c.36.37.85.56,1.47.56ZM111.18,51.56c.12,0,.24,0,.33.03s.18.04.25.06v1.57c-.08-.06-.2-.12-.36-.17-.16-.05-.35-.08-.57-.08-.38,0-.7.16-.97.48s-.4.82-.4,1.48v3.33h-1.55v-6.6h1.55v1.04h.03c.14-.36.36-.64.64-.84.29-.2.63-.31,1.03-.31ZM111.85,55.06c0-1.09.31-1.96.93-2.6.62-.64,1.47-.96,2.57-.96,1.03,0,1.84.31,2.42.92.58.61.87,1.44.87,2.49s-.31,1.92-.93,2.56c-.62.63-1.46.95-2.52.95s-1.84-.3-2.44-.9c-.6-.6-.9-1.42-.9-2.46ZM113.46,55.01c0,.69.16,1.22.47,1.58.31.36.76.55,1.34.55s1-.18,1.29-.55c.3-.36.44-.9.44-1.62s-.15-1.25-.46-1.61c-.31-.36-.74-.54-1.29-.54s-1.01.19-1.33.57c-.31.38-.47.92-.47,1.62ZM120.94,53.4c0,.22.07.4.21.52.14.13.45.29.94.48.62.25,1.06.53,1.31.84.25.31.38.69.38,1.13,0,.62-.24,1.12-.72,1.5-.48.38-1.12.57-1.94.57-.27,0-.58-.03-.91-.1-.33-.07-.61-.15-.84-.25v-1.53c.28.2.59.35.91.47.33.12.62.17.89.17.35,0,.61-.05.78-.15s.25-.26.25-.49c0-.21-.09-.4-.26-.54s-.5-.32-.99-.51c-.57-.24-.98-.51-1.22-.81-.24-.3-.36-.68-.36-1.14,0-.6.24-1.08.71-1.47.47-.38,1.09-.57,1.84-.57.23,0,.49.03.78.08.29.05.53.12.72.2v1.48c-.21-.14-.45-.25-.72-.35-.27-.1-.55-.15-.82-.15-.3,0-.53.06-.69.17-.16.12-.25.27-.25.48ZM124.44,55.06c0-1.09.31-1.96.93-2.6.62-.64,1.47-.96,2.57-.96,1.03,0,1.84.31,2.42.92.58.61.87,1.44.87,2.49s-.31,1.92-.93,2.56c-.62.63-1.46.95-2.52.95s-1.84-.3-2.44-.9c-.6-.6-.9-1.42-.9-2.46ZM126.06,55.01c0,.69.16,1.22.47,1.58.31.36.76.55,1.34.55s1-.18,1.29-.55c.3-.36.44-.9.44-1.62s-.15-1.25-.46-1.61c-.31-.36-.74-.54-1.29-.54s-1.01.19-1.33.57c-.31.38-.47.92-.47,1.62ZM136.38,52.94h-2.32v5.33h-1.57v-5.33h-1.1v-1.27h1.1v-.92c0-.69.23-1.26.68-1.71.45-.44,1.03-.66,1.74-.66.19,0,.36,0,.5.03.15.02.27.05.39.09v1.34c-.05-.03-.14-.07-.27-.11-.13-.04-.28-.06-.44-.06-.33,0-.58.1-.75.31s-.26.5-.26.9v.8h2.32v-1.48l1.56-.48v1.96h1.57v1.27h-1.57v3.09c0,.41.07.69.22.86.15.17.38.25.7.25.09,0,.2-.02.32-.06.13-.04.24-.09.33-.15v1.28c-.1.06-.26.11-.49.15s-.46.07-.68.07c-.66,0-1.15-.17-1.47-.52-.33-.35-.49-.87-.49-1.58v-3.39Z"/><rect class="cls-7" x="67.52" y="45.99" width="7.3" height="7.3"/><rect class="cls-3" x="75.57" y="45.99" width="7.3" height="7.3"/><rect class="cls-6" x="67.52" y="54.04" width="7.3" height="7.3"/><rect class="cls-8" x="75.57" y="54.04" width="7.3" height="7.3"/></svg>